<svg aria-hidden="true" style="position: absolute; width: 0; height: 0; overflow: hidden;" version="1.1" xmlns="http://www.w3.org/2000/svg" xmlns:xlink="http://www.w3.org/1999/xlink">
<defs>
    <symbol id="icon-Arrow-1" viewBox="0 0 64 32">
        <path fill="#7b7b7b" style="fill: var(--color1, #7b7b7b)" d="M62.747 17.414c0.781-0.781 0.781-2.047 0-2.828l-12.728-12.728c-0.781-0.781-2.047-0.781-2.829 0s-0.781 2.047 0 2.828l11.314 11.314-11.314 11.314c-0.781 0.781-0.781 2.047 0 2.829s2.047 0.781 2.829 0l12.728-12.728zM0 18h61.333v-4h-61.333v4z"></path>
    </symbol>
    <symbol id="icon-twitter-icon" viewBox="0 0 38 32">
        <path d="M33.777 7.62c0.024 0.334 0.024 0.669 0.024 1.003 0 10.2-7.763 21.953-21.953 21.953-4.371 0-8.432-1.266-11.848-3.464 0.621 0.072 1.218 0.095 1.863 0.095 3.607 0 6.927-1.218 9.579-3.297-3.392-0.072-6.235-2.293-7.214-5.351 0.478 0.072 0.956 0.119 1.457 0.119 0.693 0 1.386-0.096 2.030-0.263-3.535-0.717-6.187-3.822-6.187-7.572v-0.096c1.027 0.573 2.222 0.932 3.488 0.979-2.078-1.386-3.44-3.75-3.44-6.426 0-1.433 0.382-2.747 1.051-3.894 3.798 4.682 9.507 7.74 15.909 8.074-0.119-0.573-0.191-1.17-0.191-1.768 0-4.252 3.44-7.716 7.716-7.716 2.222 0 4.228 0.932 5.637 2.437 1.744-0.334 3.416-0.979 4.897-1.863-0.573 1.792-1.792 3.297-3.392 4.252 1.553-0.167 3.058-0.597 4.443-1.194-1.051 1.529-2.365 2.89-3.87 3.989z"></path>
    </symbol>
    <symbol id="icon-linkedin-icon" viewBox="0 0 32 32">
        <path d="M7.163 32h-6.634v-21.365h6.634v21.365zM3.842 7.721c-2.121 0-3.842-1.757-3.842-3.879 0-1.019 0.405-1.996 1.125-2.717s1.698-1.125 2.717-1.125c1.019 0 1.996 0.405 2.717 1.125s1.125 1.698 1.125 2.717c0 2.121-1.721 3.879-3.842 3.879zM31.994 32h-6.62v-10.4c0-2.479-0.050-5.657-3.449-5.657-3.449 0-3.978 2.693-3.978 5.479v10.579h-6.627v-21.365h6.363v2.914h0.093c0.886-1.679 3.049-3.45 6.277-3.45 6.714 0 7.949 4.422 7.949 10.165v11.736h-0.007z"></path>
    </symbol>
    <symbol id="icon-facebook-icon" viewBox="0 0 17 32">
        <path d="M15.738 17.688l0.873-5.691h-5.461v-3.693c0-1.557 0.763-3.075 3.209-3.075h2.483v-4.845c0 0-2.253-0.384-4.407-0.384-4.497 0-7.436 2.726-7.436 7.66v4.337h-4.999v5.691h4.999v13.758h6.152v-13.758h4.587z"></path>
    </symbol>
    <symbol id="icon-instagram-icon" viewBox="0 0 32 32">
        <path d="M15.25 7.427c-4.327 0-7.816 3.49-7.816 7.816s3.49 7.816 7.816 7.816 7.816-3.49 7.816-7.816c0-4.326-3.49-7.816-7.816-7.816zM15.25 20.325c-2.796 0-5.082-2.279-5.082-5.082s2.279-5.082 5.082-5.082 5.082 2.279 5.082 5.082c0 2.803-2.286 5.082-5.082 5.082zM25.209 7.107c0 1.014-0.816 1.823-1.823 1.823-1.014 0-1.823-0.816-1.823-1.823s0.816-1.823 1.823-1.823c1.007 0 1.823 0.816 1.823 1.823zM30.386 8.957c-0.116-2.442-0.673-4.605-2.463-6.388-1.782-1.782-3.945-2.34-6.388-2.463-2.517-0.143-10.061-0.143-12.578 0-2.435 0.116-4.599 0.673-6.388 2.456s-2.34 3.946-2.463 6.388c-0.143 2.517-0.143 10.061 0 12.578 0.116 2.442 0.673 4.606 2.463 6.388s3.946 2.34 6.388 2.463c2.517 0.143 10.061 0.143 12.578 0 2.442-0.116 4.605-0.674 6.388-2.463 1.782-1.782 2.34-3.946 2.463-6.388 0.143-2.517 0.143-10.054 0-12.571zM27.134 24.23c-0.531 1.333-1.558 2.361-2.898 2.898-2.007 0.796-6.769 0.612-8.986 0.612s-6.986 0.177-8.986-0.612c-1.333-0.531-2.361-1.558-2.898-2.898-0.796-2.007-0.612-6.769-0.612-8.986s-0.177-6.986 0.612-8.986c0.531-1.333 1.558-2.361 2.898-2.898 2.007-0.796 6.769-0.612 8.986-0.612s6.986-0.177 8.986 0.612c1.333 0.531 2.361 1.558 2.898 2.898 0.796 2.007 0.612 6.769 0.612 8.986s0.184 6.986-0.612 8.986z"></path>
    </symbol>
</defs>
</svg>
